<svg viewBox="0 0 1280 420" xmlns="http://www.w3.org/2000/svg" role="img" aria-label="Banner: do prompt ao dashboard — IA e Power BI">
  <defs>
    <linearGradient id="glow" x1="0" y1="0" x2="1" y2="1">
      <stop offset="0" stop-color="#f2c811" stop-opacity="0.14"/>
      <stop offset="1" stop-color="#f2c811" stop-opacity="0"/>
    </linearGradient>
  </defs>

  <rect width="1280" height="420" fill="#101418"/>
  <rect width="1280" height="420" fill="url(#glow)"/>

  <g stroke="#1d232b" stroke-width="1">
    <line x1="0" y1="105" x2="1280" y2="105"/>
    <line x1="0" y1="210" x2="1280" y2="210"/>
    <line x1="0" y1="315" x2="1280" y2="315"/>
    <line x1="320" y1="0" x2="320" y2="420"/>
    <line x1="640" y1="0" x2="640" y2="420"/>
    <line x1="960" y1="0" x2="960" y2="420"/>
  </g>

  <rect x="60" y="48" width="270" height="34" rx="17" fill="#f2c811"/>
  <text x="195" y="71" text-anchor="middle" font-family="Segoe UI, Arial, sans-serif" font-size="17" font-weight="700" letter-spacing="1.5" fill="#101418">41º MEETUP POWER BI</text>

  <text x="60" y="140" font-family="Segoe UI, Arial, sans-serif" font-size="46" font-weight="800" fill="#e8eaed">Do prompt ao <tspan fill="#f2c811">dashboard</tspan></text>
  <text x="60" y="178" font-family="Segoe UI, Arial, sans-serif" font-size="22" fill="#9aa3ad">um novo fluxo de trabalho com IA e Power BI</text>

  <g>
    <rect x="60" y="218" width="430" height="150" rx="12" fill="#0b0e12" stroke="#2a323c"/>
    <rect x="60" y="218" width="430" height="34" rx="12" fill="#171c22" stroke="#2a323c"/>
    <circle cx="84" cy="235" r="6" fill="#f2555a"/>
    <circle cx="104" cy="235" r="6" fill="#f2c811"/>
    <circle cx="124" cy="235" r="6" fill="#4ec98a"/>
    <text x="86" y="288" font-family="Consolas, Menlo, monospace" font-size="17" fill="#f2c811">$ openclaude</text>
    <text x="86" y="316" font-family="Consolas, Menlo, monospace" font-size="17" fill="#e8eaed">&gt; crie o dashboard com a</text>
    <text x="86" y="342" font-family="Consolas, Menlo, monospace" font-size="17" fill="#e8eaed">  skill /powerbi-report-authoring</text>
    <rect x="418" y="330" width="11" height="18" fill="#f2c811"/>
  </g>

  <g>
    <path d="M 520 293 L 610 293" stroke="#f2c811" stroke-width="5" fill="none"/>
    <path d="M 600 278 L 628 293 L 600 308 Z" fill="#f2c811"/>
    <text x="540" y="278" font-family="Segoe UI, Arial, sans-serif" font-size="15" font-weight="700" fill="#f2c811">IA</text>
  </g>

  <g transform="translate(20,0)">
    <rect x="660" y="120" width="560" height="248" rx="14" fill="#171c22" stroke="#2a323c" stroke-width="1.5"/>
    <rect x="660" y="120" width="560" height="42" rx="14" fill="#1d232b"/>
    <circle cx="688" cy="141" r="8" fill="#f2c811"/>
    <text x="706" y="147" font-family="Segoe UI, Arial, sans-serif" font-size="16" font-weight="700" fill="#e8eaed">Relatório · IA Workforce 2030</text>

    <rect x="686" y="184" width="120" height="56" rx="8" fill="#0b0e12" stroke="#2a323c"/>
    <text x="698" y="206" font-family="Segoe UI, Arial, sans-serif" font-size="12" fill="#9aa3ad">Risco médio</text>
    <text x="698" y="230" font-family="Segoe UI, Arial, sans-serif" font-size="20" font-weight="800" fill="#f2c811">57,4%</text>
    <rect x="822" y="184" width="120" height="56" rx="8" fill="#0b0e12" stroke="#2a323c"/>
    <text x="834" y="206" font-family="Segoe UI, Arial, sans-serif" font-size="12" fill="#9aa3ad">Cargos</text>
    <text x="834" y="230" font-family="Segoe UI, Arial, sans-serif" font-size="20" font-weight="800" fill="#4ec98a">30 mil</text>

    <g fill="#f2c811">
      <rect x="700" y="316" width="34" height="30" rx="3"/>
      <rect x="744" y="292" width="34" height="54" rx="3"/>
      <rect x="788" y="270" width="34" height="76" rx="3"/>
      <rect x="832" y="300" width="34" height="46" rx="3"/>
      <rect x="876" y="256" width="34" height="90" rx="3"/>
    </g>
    <line x1="700" y1="346" x2="910" y2="346" stroke="#2a323c" stroke-width="1.5"/>

    <path d="M 970 330 L 1010 300 L 1050 312 L 1090 270 L 1130 282 L 1170 240" stroke="#4ec98a" stroke-width="4" fill="none" stroke-linecap="round" stroke-linejoin="round"/>
    <circle cx="1170" cy="240" r="6" fill="#4ec98a"/>
    <line x1="970" y1="346" x2="1180" y2="346" stroke="#2a323c" stroke-width="1.5"/>
    <text x="970" y="200" font-family="Segoe UI, Arial, sans-serif" font-size="12" fill="#9aa3ad">Tendência 2030</text>
  </g>

  <g fill="#f2c811">
    <path d="M 588 150 L 596 170 L 616 178 L 596 186 L 588 206 L 580 186 L 560 178 L 580 170 Z"/>
    <path d="M 632 118 L 636 128 L 646 132 L 636 136 L 632 146 L 628 136 L 618 132 L 628 128 Z" opacity="0.7"/>
    <path d="M 556 224 L 559 231 L 566 234 L 559 237 L 556 244 L 553 237 L 546 234 L 553 231 Z" opacity="0.5"/>
  </g>
</svg>
